<svg width="153" height="35" viewBox="0 0 153 35" fill="none" xmlns="http://www.w3.org/2000/svg">
<path d="M20.432 26.216C19.872 26.216 19.44 26.064 19.136 25.76C18.848 25.44 18.704 24.992 18.704 24.416V10.736C18.704 10.128 18.848 9.664 19.136 9.344C19.44 9.024 19.84 8.864 20.336 8.864C20.768 8.864 21.096 8.952 21.32 9.128C21.56 9.288 21.832 9.56 22.136 9.944L30.56 20.672H29.912V10.64C29.912 10.08 30.056 9.648 30.344 9.344C30.648 9.024 31.08 8.864 31.64 8.864C32.2 8.864 32.624 9.024 32.912 9.344C33.216 9.648 33.368 10.08 33.368 10.64V24.488C33.368 25.016 33.232 25.44 32.96 25.76C32.688 26.064 32.32 26.216 31.856 26.216C31.408 26.216 31.048 26.128 30.776 25.952C30.52 25.776 30.24 25.496 29.936 25.112L21.536 14.384H22.16V24.416C22.16 24.992 22.016 25.44 21.728 25.76C21.44 26.064 21.008 26.216 20.432 26.216ZM43.0863 26.264C41.8223 26.264 40.7183 26.016 39.7743 25.52C38.8463 25.024 38.1263 24.312 37.6143 23.384C37.1023 22.456 36.8463 21.36 36.8463 20.096C36.8463 19.152 36.9903 18.304 37.2783 17.552C37.5663 16.8 37.9823 16.16 38.5263 15.632C39.0863 15.088 39.7503 14.68 40.5183 14.408C41.2863 14.12 42.1423 13.976 43.0863 13.976C44.3503 13.976 45.4463 14.224 46.3743 14.72C47.3183 15.216 48.0463 15.92 48.5583 16.832C49.0863 17.744 49.3503 18.832 49.3503 20.096C49.3503 21.056 49.1983 21.912 48.8943 22.664C48.6063 23.416 48.1903 24.064 47.6463 24.608C47.1023 25.152 46.4383 25.568 45.6543 25.856C44.8863 26.128 44.0303 26.264 43.0863 26.264ZM43.0863 23.552C43.6143 23.552 44.0703 23.424 44.4543 23.168C44.8383 22.912 45.1423 22.536 45.3663 22.04C45.5903 21.528 45.7023 20.88 45.7023 20.096C45.7023 18.928 45.4623 18.072 44.9823 17.528C44.5023 16.968 43.8703 16.688 43.0863 16.688C42.5743 16.688 42.1183 16.808 41.7183 17.048C41.3343 17.288 41.0303 17.664 40.8063 18.176C40.5983 18.672 40.4943 19.312 40.4943 20.096C40.4943 21.264 40.7343 22.136 41.2143 22.712C41.6943 23.272 42.3183 23.552 43.0863 23.552ZM56.8591 26.264C55.8671 26.264 55.0431 26.08 54.3871 25.712C53.7311 25.344 53.2431 24.792 52.9231 24.056C52.6191 23.304 52.4671 22.376 52.4671 21.272V15.848C52.4671 15.24 52.6191 14.784 52.9231 14.48C53.2431 14.176 53.6911 14.024 54.2671 14.024C54.8431 14.024 55.2911 14.176 55.6111 14.48C55.9311 14.784 56.0911 15.24 56.0911 15.848V21.368C56.0911 22.072 56.2351 22.6 56.5231 22.952C56.8111 23.288 57.2671 23.456 57.8911 23.456C58.5791 23.456 59.1391 23.216 59.5711 22.736C60.0191 22.24 60.2431 21.592 60.2431 20.792V15.848C60.2431 15.24 60.3951 14.784 60.6991 14.48C61.0191 14.176 61.4671 14.024 62.0431 14.024C62.6351 14.024 63.0831 14.176 63.3871 14.48C63.7071 14.784 63.8671 15.24 63.8671 15.848V24.368C63.8671 25.6 63.2831 26.216 62.1151 26.216C61.5391 26.216 61.0991 26.056 60.7951 25.736C60.4911 25.416 60.3391 24.96 60.3391 24.368V22.76L60.6991 23.696C60.3471 24.512 59.8431 25.144 59.1871 25.592C58.5311 26.04 57.7551 26.264 56.8591 26.264ZM69.5034 26.216C68.8954 26.216 68.4314 26.056 68.1114 25.736C67.7914 25.416 67.6314 24.96 67.6314 24.368V15.848C67.6314 15.256 67.7834 14.808 68.0874 14.504C68.4074 14.184 68.8474 14.024 69.4074 14.024C69.9834 14.024 70.4234 14.184 70.7274 14.504C71.0314 14.808 71.1834 15.256 71.1834 15.848V17.096H70.9434C71.1354 16.136 71.5594 15.392 72.2154 14.864C72.8714 14.336 73.7194 14.04 74.7594 13.976C75.1594 13.944 75.4634 14.048 75.6714 14.288C75.8954 14.512 76.0154 14.888 76.0314 15.416C76.0634 15.912 75.9594 16.304 75.7194 16.592C75.4954 16.88 75.1114 17.056 74.5674 17.12L74.0154 17.168C73.1034 17.248 72.4234 17.512 71.9754 17.96C71.5434 18.408 71.3274 19.056 71.3274 19.904V24.368C71.3274 24.96 71.1674 25.416 70.8474 25.736C70.5434 26.056 70.0954 26.216 69.5034 26.216ZM80.306 26.192C79.714 26.192 79.258 26.024 78.938 25.688C78.634 25.336 78.482 24.848 78.482 24.224V16.016C78.482 15.376 78.634 14.888 78.938 14.552C79.258 14.2 79.714 14.024 80.306 14.024C80.882 14.024 81.322 14.2 81.626 14.552C81.946 14.888 82.106 15.376 82.106 16.016V24.224C82.106 24.848 81.954 25.336 81.65 25.688C81.346 26.024 80.898 26.192 80.306 26.192ZM80.306 12.056C79.634 12.056 79.114 11.904 78.746 11.6C78.394 11.28 78.218 10.832 78.218 10.256C78.218 9.664 78.394 9.216 78.746 8.912C79.114 8.592 79.634 8.432 80.306 8.432C80.978 8.432 81.49 8.592 81.842 8.912C82.194 9.216 82.37 9.664 82.37 10.256C82.37 10.832 82.194 11.28 81.842 11.6C81.49 11.904 80.978 12.056 80.306 12.056ZM90.3759 26.264C89.6719 26.264 88.9439 26.2 88.1919 26.072C87.4559 25.944 86.7839 25.728 86.1759 25.424C85.8559 25.264 85.6239 25.064 85.4799 24.824C85.3519 24.568 85.2959 24.312 85.3119 24.056C85.3279 23.8 85.4079 23.568 85.5519 23.36C85.7119 23.152 85.9119 23.016 86.1519 22.952C86.4079 22.872 86.6879 22.896 86.9919 23.024C87.6479 23.296 88.2479 23.488 88.7919 23.6C89.3359 23.712 89.8719 23.768 90.3999 23.768C91.0879 23.768 91.5839 23.664 91.8879 23.456C92.2079 23.232 92.3679 22.944 92.3679 22.592C92.3679 22.272 92.2639 22.032 92.0559 21.872C91.8479 21.712 91.5439 21.6 91.1439 21.536L88.6239 21.08C87.6319 20.904 86.8639 20.544 86.3199 20C85.7919 19.44 85.5279 18.728 85.5279 17.864C85.5279 17.064 85.7519 16.376 86.1999 15.8C86.6479 15.208 87.2639 14.76 88.0479 14.456C88.8479 14.136 89.7519 13.976 90.7599 13.976C91.4799 13.976 92.1439 14.04 92.7519 14.168C93.3599 14.296 93.9439 14.504 94.5039 14.792C94.7919 14.936 94.9919 15.128 95.1039 15.368C95.2319 15.608 95.2719 15.856 95.2239 16.112C95.1919 16.368 95.0959 16.6 94.9359 16.808C94.7759 17.016 94.5679 17.152 94.3119 17.216C94.0719 17.28 93.7919 17.248 93.4719 17.12C92.9599 16.88 92.4879 16.712 92.0559 16.616C91.6239 16.504 91.2079 16.448 90.8079 16.448C90.0879 16.448 89.5679 16.568 89.2479 16.808C88.9279 17.032 88.7679 17.32 88.7679 17.672C88.7679 17.944 88.8559 18.176 89.0319 18.368C89.2239 18.544 89.5119 18.664 89.8959 18.728L92.4159 19.184C93.4559 19.36 94.2479 19.712 94.7919 20.24C95.3359 20.752 95.6079 21.456 95.6079 22.352C95.6079 23.568 95.1279 24.528 94.1679 25.232C93.2239 25.92 91.9599 26.264 90.3759 26.264ZM100.46 26.216C99.8684 26.216 99.4124 26.056 99.0924 25.736C98.7884 25.416 98.6364 24.96 98.6364 24.368V10.712C98.6364 10.104 98.7884 9.648 99.0924 9.344C99.4124 9.024 99.8684 8.864 100.46 8.864C101.036 8.864 101.476 9.024 101.78 9.344C102.1 9.648 102.26 10.104 102.26 10.712V16.424H101.924C102.292 15.64 102.836 15.04 103.556 14.624C104.292 14.192 105.124 13.976 106.052 13.976C106.996 13.976 107.772 14.16 108.38 14.528C108.988 14.88 109.444 15.424 109.748 16.16C110.052 16.88 110.204 17.8 110.204 18.92V24.368C110.204 24.96 110.044 25.416 109.724 25.736C109.42 26.056 108.972 26.216 108.38 26.216C107.804 26.216 107.356 26.056 107.036 25.736C106.732 25.416 106.58 24.96 106.58 24.368V19.088C106.58 18.272 106.428 17.688 106.124 17.336C105.836 16.968 105.388 16.784 104.78 16.784C104.012 16.784 103.396 17.024 102.932 17.504C102.484 17.984 102.26 18.624 102.26 19.424V24.368C102.26 25.6 101.66 26.216 100.46 26.216Z" fill="white"/>
<path d="M145.06 8.16295L147.847 8.07486V17.9404H144.484L145.06 8.16295Z" fill="#FFA132"/>
<ellipse cx="136.475" cy="25.1634" rx="3.31877" ry="4.2281" fill="#FFA132"/>
<path d="M130.387 11.3781C130.387 13.7132 128.768 13.3159 126.935 13.3159C125.102 13.3159 123.882 12.6993 123.882 11.8625C123.882 9.52742 125.235 9.21997 127.068 9.21997C128.901 9.21997 130.387 9.04295 130.387 11.3781Z" fill="#FFA132"/>
<path d="M122.233 3.79129C122.07 3.88233 121.854 4.07743 121.743 4.227L121.547 4.50664V7.99234V11.4846L121.717 11.9203C122.331 13.4875 123.651 14.528 125.238 14.6906L125.663 14.7361L125.696 22.605L125.729 30.4738L125.872 30.708C125.957 30.838 126.147 31.0266 126.297 31.1307C126.539 31.2998 126.624 31.3193 127.068 31.3193C127.506 31.3193 127.597 31.2998 127.826 31.1437C127.963 31.0461 128.153 30.8575 128.244 30.721L128.407 30.4803L128.44 22.6115L128.473 14.7361L128.897 14.6906C130.524 14.528 131.949 13.364 132.445 11.8097C132.589 11.361 132.589 11.2895 132.589 7.93382V4.51314L132.413 4.25952C132.125 3.85632 131.825 3.68724 131.321 3.66122C130.786 3.63521 130.4 3.8108 130.106 4.227L129.91 4.50664L129.878 6.13894L129.845 7.77774H129.159H128.473L128.44 6.14544C128.407 4.53915 128.407 4.51314 128.244 4.27903C127.97 3.86933 127.636 3.68724 127.14 3.66122C126.604 3.63521 126.219 3.8108 125.925 4.227L125.729 4.50664L125.696 6.13894L125.663 7.77774H124.977H124.291L124.258 6.14544L124.226 4.51314L124.049 4.25952C123.762 3.85632 123.461 3.68724 122.958 3.66122C122.599 3.64172 122.475 3.66773 122.233 3.79129ZM129.812 10.7367C129.812 11.1334 129.492 11.5691 129.028 11.8162C128.819 11.9268 128.636 11.9398 127.068 11.9398C125.421 11.9398 125.323 11.9333 125.075 11.7967C124.631 11.5626 124.324 11.1269 124.324 10.7367V10.5416H127.068H129.812V10.7367Z" fill="white"/>
<path d="M135.777 3.79129C135.614 3.88233 135.398 4.07743 135.287 4.227L135.091 4.50664L135.058 11.7577L135.026 19.0087L134.477 19.1713C133.105 19.5615 132.079 20.3809 131.504 21.532C131.001 22.553 130.916 22.9757 130.916 24.4584C130.916 25.5444 130.936 25.8046 131.053 26.2793C131.694 28.796 133.111 30.5129 135.091 31.1697C135.477 31.2932 135.686 31.3193 136.431 31.3193C137.175 31.3193 137.385 31.2932 137.77 31.1697C139.75 30.5129 141.168 28.796 141.808 26.2793C141.926 25.8046 141.945 25.5444 141.945 24.4584C141.945 23.3659 141.926 23.1187 141.801 22.67C141.311 20.8686 140.142 19.6721 138.384 19.1713L137.835 19.0087L137.803 11.7642L137.77 4.51314L137.594 4.25952C137.306 3.85632 137.006 3.68724 136.502 3.66123C136.143 3.64172 136.019 3.66773 135.777 3.79129ZM137.718 21.8571C138.45 22.1043 138.926 22.67 139.109 23.4894C139.234 24.0552 139.162 25.4729 138.979 26.0517C138.639 27.1182 137.992 28.0156 137.293 28.3668C136.855 28.5879 136.012 28.5944 135.581 28.3733C134.836 27.9896 134.235 27.1572 133.869 26.0192C133.739 25.59 133.719 25.4014 133.719 24.4584C133.719 23.4114 133.726 23.3789 133.909 22.9757C134.235 22.2733 134.902 21.8181 135.777 21.7011C135.777 21.7011 137.313 21.7271 137.718 21.8571Z" fill="white"/>
<path d="M148.375 3.76528C147.538 4.20099 146.245 5.38457 145.448 6.43158C143.461 9.06537 142.305 12.7852 142.037 17.435C141.939 19.1388 141.985 19.3924 142.436 19.8411C142.873 20.2769 142.991 20.2964 145.474 20.2964H147.604V25.3233V30.3568L147.754 30.6299C147.832 30.786 148.028 31.0006 148.185 31.1177C148.44 31.2998 148.505 31.3193 148.969 31.3193C149.414 31.3193 149.505 31.2998 149.734 31.1437C149.871 31.0461 150.061 30.8575 150.152 30.721L150.315 30.4803V17.5V4.51314L150.139 4.25952C149.851 3.84982 149.551 3.68724 149.048 3.66122C148.721 3.64822 148.558 3.66773 148.375 3.76528ZM147.604 12.8827V17.5H146.219H144.84L144.886 16.8302C145.003 15.0418 145.441 12.8827 146.01 11.2895C146.388 10.2359 147.408 8.26548 147.571 8.26548C147.591 8.26548 147.604 10.34 147.604 12.8827Z" fill="white"/>
</svg>
