<svg width="199" height="44" viewBox="0 0 199 44" fill="none" xmlns="http://www.w3.org/2000/svg">
<path d="M5.69191 33.374C4.92191 33.374 4.32791 33.165 3.90991 32.747C3.51391 32.307 3.31591 31.691 3.31591 30.899V12.089C3.31591 11.253 3.51391 10.615 3.90991 10.175C4.32791 9.73503 4.87791 9.51502 5.55991 9.51502C6.15391 9.51502 6.60491 9.63603 6.91291 9.87803C7.24291 10.098 7.61691 10.472 8.03491 11L19.6179 25.751H18.7269V11.957C18.7269 11.187 18.9249 10.593 19.3209 10.175C19.7389 9.73503 20.3329 9.51502 21.1029 9.51502C21.8729 9.51502 22.4559 9.73503 22.8519 10.175C23.2699 10.593 23.4789 11.187 23.4789 11.957V30.998C23.4789 31.724 23.2919 32.307 22.9179 32.747C22.5439 33.165 22.0379 33.374 21.3999 33.374C20.7839 33.374 20.2889 33.253 19.9149 33.011C19.5629 32.769 19.1779 32.384 18.7599 31.856L7.20991 17.105H8.06791V30.899C8.06791 31.691 7.86991 32.307 7.47391 32.747C7.07791 33.165 6.48391 33.374 5.69191 33.374ZM36.8416 33.44C35.1036 33.44 33.5856 33.099 32.2876 32.417C31.0116 31.735 30.0216 30.756 29.3176 29.48C28.6136 28.204 28.2616 26.697 28.2616 24.959C28.2616 23.661 28.4596 22.495 28.8556 21.461C29.2516 20.427 29.8236 19.547 30.5716 18.821C31.3416 18.073 32.2546 17.512 33.3106 17.138C34.3666 16.742 35.5436 16.544 36.8416 16.544C38.5796 16.544 40.0866 16.885 41.3626 17.567C42.6606 18.249 43.6616 19.217 44.3656 20.471C45.0916 21.725 45.4546 23.221 45.4546 24.959C45.4546 26.279 45.2456 27.456 44.8276 28.49C44.4316 29.524 43.8596 30.415 43.1116 31.163C42.3636 31.911 41.4506 32.483 40.3726 32.879C39.3166 33.253 38.1396 33.44 36.8416 33.44ZM36.8416 29.711C37.5676 29.711 38.1946 29.535 38.7226 29.183C39.2506 28.831 39.6686 28.314 39.9766 27.632C40.2846 26.928 40.4386 26.037 40.4386 24.959C40.4386 23.353 40.1086 22.176 39.4486 21.428C38.7886 20.658 37.9196 20.273 36.8416 20.273C36.1376 20.273 35.5106 20.438 34.9606 20.768C34.4326 21.098 34.0146 21.615 33.7066 22.319C33.4206 23.001 33.2776 23.881 33.2776 24.959C33.2776 26.565 33.6076 27.764 34.2676 28.556C34.9276 29.326 35.7856 29.711 36.8416 29.711ZM55.7792 33.44C54.4152 33.44 53.2822 33.187 52.3802 32.681C51.4782 32.175 50.8072 31.416 50.3672 30.404C49.9492 29.37 49.7402 28.094 49.7402 26.576V19.118C49.7402 18.282 49.9492 17.655 50.3672 17.237C50.8072 16.819 51.4232 16.61 52.2152 16.61C53.0072 16.61 53.6232 16.819 54.0632 17.237C54.5032 17.655 54.7232 18.282 54.7232 19.118V26.708C54.7232 27.676 54.9212 28.402 55.3172 28.886C55.7132 29.348 56.3402 29.579 57.1982 29.579C58.1442 29.579 58.9142 29.249 59.5082 28.589C60.1242 27.907 60.4322 27.016 60.4322 25.916V19.118C60.4322 18.282 60.6412 17.655 61.0592 17.237C61.4992 16.819 62.1152 16.61 62.9072 16.61C63.7212 16.61 64.3372 16.819 64.7552 17.237C65.1952 17.655 65.4152 18.282 65.4152 19.118V30.833C65.4152 32.527 64.6122 33.374 63.0062 33.374C62.2142 33.374 61.6092 33.154 61.1912 32.714C60.7732 32.274 60.5642 31.647 60.5642 30.833V28.622L61.0592 29.909C60.5752 31.031 59.8822 31.9 58.9802 32.516C58.0782 33.132 57.0112 33.44 55.7792 33.44ZM73.165 33.374C72.329 33.374 71.691 33.154 71.251 32.714C70.811 32.274 70.591 31.647 70.591 30.833V19.118C70.591 18.304 70.8 17.688 71.218 17.27C71.658 16.83 72.263 16.61 73.033 16.61C73.825 16.61 74.43 16.83 74.848 17.27C75.266 17.688 75.475 18.304 75.475 19.118V20.834H75.145C75.409 19.514 75.992 18.491 76.894 17.765C77.796 17.039 78.962 16.632 80.392 16.544C80.942 16.5 81.36 16.643 81.646 16.973C81.954 17.281 82.119 17.798 82.141 18.524C82.185 19.206 82.042 19.745 81.712 20.141C81.404 20.537 80.876 20.779 80.128 20.867L79.369 20.933C78.115 21.043 77.18 21.406 76.564 22.022C75.97 22.638 75.673 23.529 75.673 24.695V30.833C75.673 31.647 75.453 32.274 75.013 32.714C74.595 33.154 73.979 33.374 73.165 33.374ZM88.0187 33.341C87.2047 33.341 86.5777 33.11 86.1377 32.648C85.7197 32.164 85.5107 31.493 85.5107 30.635V19.349C85.5107 18.469 85.7197 17.798 86.1377 17.336C86.5777 16.852 87.2047 16.61 88.0187 16.61C88.8107 16.61 89.4157 16.852 89.8337 17.336C90.2737 17.798 90.4937 18.469 90.4937 19.349V30.635C90.4937 31.493 90.2847 32.164 89.8667 32.648C89.4487 33.11 88.8327 33.341 88.0187 33.341ZM88.0187 13.904C87.0947 13.904 86.3797 13.695 85.8737 13.277C85.3897 12.837 85.1477 12.221 85.1477 11.429C85.1477 10.615 85.3897 9.99903 85.8737 9.58103C86.3797 9.14103 87.0947 8.92102 88.0187 8.92102C88.9427 8.92102 89.6467 9.14103 90.1307 9.58103C90.6147 9.99903 90.8567 10.615 90.8567 11.429C90.8567 12.221 90.6147 12.837 90.1307 13.277C89.6467 13.695 88.9427 13.904 88.0187 13.904ZM101.865 33.44C100.897 33.44 99.8957 33.352 98.8617 33.176C97.8497 33 96.9257 32.703 96.0897 32.285C95.6497 32.065 95.3307 31.79 95.1327 31.46C94.9567 31.108 94.8797 30.756 94.9017 30.404C94.9237 30.052 95.0337 29.733 95.2317 29.447C95.4517 29.161 95.7267 28.974 96.0567 28.886C96.4087 28.776 96.7937 28.809 97.2117 28.985C98.1137 29.359 98.9387 29.623 99.6867 29.777C100.435 29.931 101.172 30.008 101.898 30.008C102.844 30.008 103.526 29.865 103.944 29.579C104.384 29.271 104.604 28.875 104.604 28.391C104.604 27.951 104.461 27.621 104.175 27.401C103.889 27.181 103.471 27.027 102.921 26.939L99.4557 26.312C98.0917 26.07 97.0357 25.575 96.2877 24.827C95.5617 24.057 95.1987 23.078 95.1987 21.89C95.1987 20.79 95.5067 19.844 96.1227 19.052C96.7387 18.238 97.5857 17.622 98.6637 17.204C99.7637 16.764 101.007 16.544 102.393 16.544C103.383 16.544 104.296 16.632 105.132 16.808C105.968 16.984 106.771 17.27 107.541 17.666C107.937 17.864 108.212 18.128 108.366 18.458C108.542 18.788 108.597 19.129 108.531 19.481C108.487 19.833 108.355 20.152 108.135 20.438C107.915 20.724 107.629 20.911 107.277 20.999C106.947 21.087 106.562 21.043 106.122 20.867C105.418 20.537 104.769 20.306 104.175 20.174C103.581 20.02 103.009 19.943 102.459 19.943C101.469 19.943 100.754 20.108 100.314 20.438C99.8737 20.746 99.6537 21.142 99.6537 21.626C99.6537 22 99.7747 22.319 100.017 22.583C100.281 22.825 100.677 22.99 101.205 23.078L104.67 23.705C106.1 23.947 107.189 24.431 107.937 25.157C108.685 25.861 109.059 26.829 109.059 28.061C109.059 29.733 108.399 31.053 107.079 32.021C105.781 32.967 104.043 33.44 101.865 33.44ZM115.731 33.374C114.917 33.374 114.29 33.154 113.85 32.714C113.432 32.274 113.223 31.647 113.223 30.833V12.056C113.223 11.22 113.432 10.593 113.85 10.175C114.29 9.73503 114.917 9.51502 115.731 9.51502C116.523 9.51502 117.128 9.73503 117.546 10.175C117.986 10.593 118.206 11.22 118.206 12.056V19.91H117.744C118.25 18.832 118.998 18.007 119.988 17.435C121 16.841 122.144 16.544 123.42 16.544C124.718 16.544 125.785 16.797 126.621 17.303C127.457 17.787 128.084 18.535 128.502 19.547C128.92 20.537 129.129 21.802 129.129 23.342V30.833C129.129 31.647 128.909 32.274 128.469 32.714C128.051 33.154 127.435 33.374 126.621 33.374C125.829 33.374 125.213 33.154 124.773 32.714C124.355 32.274 124.146 31.647 124.146 30.833V23.573C124.146 22.451 123.937 21.648 123.519 21.164C123.123 20.658 122.507 20.405 121.671 20.405C120.615 20.405 119.768 20.735 119.13 21.395C118.514 22.055 118.206 22.935 118.206 24.035V30.833C118.206 32.527 117.381 33.374 115.731 33.374ZM140.373 33.44C139.405 33.44 138.404 33.352 137.37 33.176C136.358 33 135.434 32.703 134.598 32.285C134.158 32.065 133.839 31.79 133.641 31.46C133.465 31.108 133.388 30.756 133.41 30.404C133.432 30.052 133.542 29.733 133.74 29.447C133.96 29.161 134.235 28.974 134.565 28.886C134.917 28.776 135.302 28.809 135.72 28.985C136.622 29.359 137.447 29.623 138.195 29.777C138.943 29.931 139.68 30.008 140.406 30.008C141.352 30.008 142.034 29.865 142.452 29.579C142.892 29.271 143.112 28.875 143.112 28.391C143.112 27.951 142.969 27.621 142.683 27.401C142.397 27.181 141.979 27.027 141.429 26.939L137.964 26.312C136.6 26.07 135.544 25.575 134.796 24.827C134.07 24.057 133.707 23.078 133.707 21.89C133.707 20.79 134.015 19.844 134.631 19.052C135.247 18.238 136.094 17.622 137.172 17.204C138.272 16.764 139.515 16.544 140.901 16.544C141.891 16.544 142.804 16.632 143.64 16.808C144.476 16.984 145.279 17.27 146.049 17.666C146.445 17.864 146.72 18.128 146.874 18.458C147.05 18.788 147.105 19.129 147.039 19.481C146.995 19.833 146.863 20.152 146.643 20.438C146.423 20.724 146.137 20.911 145.785 20.999C145.455 21.087 145.07 21.043 144.63 20.867C143.926 20.537 143.277 20.306 142.683 20.174C142.089 20.02 141.517 19.943 140.967 19.943C139.977 19.943 139.262 20.108 138.822 20.438C138.382 20.746 138.162 21.142 138.162 21.626C138.162 22 138.283 22.319 138.525 22.583C138.789 22.825 139.185 22.99 139.713 23.078L143.178 23.705C144.608 23.947 145.697 24.431 146.445 25.157C147.193 25.861 147.567 26.829 147.567 28.061C147.567 29.733 146.907 31.053 145.587 32.021C144.289 32.967 142.551 33.44 140.373 33.44Z" fill="#FF7020"/>
<path d="M189.545 9.76532L193.187 9.6499V22.5772H188.793L189.545 9.76532Z" fill="white"/>
<ellipse cx="178.327" cy="32.0417" rx="4.33653" ry="5.54027" fill="white"/>
<path d="M170.371 13.9782C170.371 17.038 168.256 16.5175 165.861 16.5175C163.466 16.5175 161.871 15.7096 161.871 14.613C161.871 11.5532 163.639 11.1504 166.034 11.1504C168.429 11.1504 170.371 10.9184 170.371 13.9782Z" fill="white"/>
<path d="M159.717 4.0369C159.503 4.1562 159.222 4.41184 159.076 4.60783L158.82 4.97425V9.54173V14.1177L159.042 14.6887C159.845 16.7423 161.569 18.1057 163.644 18.3188L164.199 18.3784L164.242 28.6893L164.284 39.0002L164.472 39.307C164.583 39.4774 164.831 39.7246 165.027 39.8609C165.343 40.0825 165.454 40.108 166.035 40.108C166.607 40.108 166.726 40.0825 167.025 39.878C167.204 39.7501 167.452 39.503 167.571 39.3241L167.785 39.0088L167.827 28.6979L167.87 18.3784L168.425 18.3188C170.551 18.1057 172.412 16.5804 173.061 14.5438C173.249 13.9558 173.249 13.8621 173.249 9.46504V4.98277L173.018 4.65044C172.643 4.12211 172.25 3.90055 171.592 3.86647C170.892 3.83238 170.389 4.06246 170.004 4.60783L169.748 4.97425L169.706 7.11313L169.663 9.26052H168.767H167.87L167.827 7.12165C167.785 5.01686 167.785 4.98277 167.571 4.676C167.213 4.13915 166.777 3.90055 166.128 3.86647C165.428 3.83238 164.925 4.06246 164.54 4.60783L164.284 4.97425L164.242 7.11313L164.199 9.26052H163.303H162.406L162.363 7.12165L162.321 4.98277L162.09 4.65044C161.715 4.12211 161.322 3.90055 160.664 3.86647C160.195 3.8409 160.033 3.87499 159.717 4.0369ZM169.62 13.1378C169.62 13.6576 169.202 14.2285 168.596 14.5523C168.323 14.6972 168.084 14.7142 166.035 14.7142C163.883 14.7142 163.755 14.7057 163.431 14.5268C162.85 14.22 162.449 13.649 162.449 13.1378V12.8821H166.035H169.62V13.1378Z" fill="#FF7020"/>
<path d="M177.414 4.0369C177.201 4.1562 176.919 4.41184 176.774 4.60783L176.518 4.97426L176.475 14.4756L176.433 23.977L175.715 24.19C173.923 24.7013 172.582 25.775 171.831 27.2833C171.173 28.6212 171.062 29.1751 171.062 31.1179C171.062 32.541 171.088 32.8819 171.242 33.5039C172.078 36.8017 173.931 39.0514 176.518 39.912C177.022 40.0739 177.295 40.108 178.268 40.108C179.241 40.108 179.515 40.0739 180.018 39.912C182.605 39.0514 184.458 36.8017 185.295 33.5039C185.448 32.8819 185.474 32.541 185.474 31.1179C185.474 29.6863 185.448 29.3625 185.286 28.7746C184.646 26.4141 183.118 24.8462 180.821 24.19L180.104 23.977L180.061 14.4841L180.018 4.98278L179.788 4.65044C179.412 4.12211 179.019 3.90056 178.362 3.86647C177.893 3.84091 177.73 3.87499 177.414 4.0369ZM179.95 27.7094C180.906 28.0332 181.53 28.7746 181.769 29.8483C181.931 30.5896 181.837 32.4473 181.598 33.2057C181.154 34.6032 180.309 35.7792 179.395 36.2393C178.823 36.529 177.722 36.5376 177.158 36.2478C176.185 35.7451 175.4 34.6543 174.921 33.1631C174.751 32.6007 174.725 32.3535 174.725 31.1179C174.725 29.746 174.734 29.7034 174.973 29.1751C175.4 28.2547 176.27 27.6583 177.414 27.5049C177.414 27.5049 179.421 27.539 179.95 27.7094Z" fill="#FF7020"/>
<path d="M193.876 4.00281C192.784 4.57375 191.093 6.12464 190.052 7.49659C187.456 10.9478 185.945 15.822 185.595 21.9148C185.467 24.1474 185.527 24.4798 186.116 25.0677C186.688 25.6387 186.841 25.6642 190.086 25.6642H192.869V32.2513V38.8469L193.065 39.2048C193.168 39.4093 193.424 39.6905 193.629 39.8439C193.962 40.0825 194.047 40.108 194.653 40.108C195.234 40.108 195.353 40.0825 195.652 39.878C195.832 39.7501 196.079 39.503 196.199 39.3241L196.412 39.0088V22V4.98277L196.182 4.65044C195.806 4.11359 195.413 3.90055 194.756 3.86647C194.329 3.84943 194.115 3.87499 193.876 4.00281ZM192.869 15.9498V22H191.059H189.258L189.317 21.1223C189.471 18.7789 190.043 15.9498 190.786 13.8621C191.281 12.4816 192.613 9.89963 192.826 9.89963C192.852 9.89963 192.869 12.618 192.869 15.9498Z" fill="#FF7020"/>
</svg>
