<svg width="153" height="35" viewBox="0 0 153 35" fill="none" xmlns="http://www.w3.org/2000/svg">
<path d="M3.6465 26.9699C3.0515 26.9699 2.5925 26.8084 2.2695 26.4854C1.9635 26.1454 1.8105 25.6694 1.8105 25.0574V10.5224C1.8105 9.87637 1.9635 9.38337 2.2695 9.04337C2.5925 8.70337 3.0175 8.53337 3.5445 8.53337C4.0035 8.53337 4.352 8.62687 4.59 8.81387C4.845 8.98387 5.134 9.27287 5.457 9.68087L14.4075 21.0794H13.719V10.4204C13.719 9.82537 13.872 9.36637 14.178 9.04337C14.501 8.70337 14.96 8.53337 15.555 8.53337C16.15 8.53337 16.6005 8.70337 16.9065 9.04337C17.2295 9.36637 17.391 9.82537 17.391 10.4204V25.1339C17.391 25.6949 17.2465 26.1454 16.9575 26.4854C16.6685 26.8084 16.2775 26.9699 15.7845 26.9699C15.3085 26.9699 14.926 26.8764 14.637 26.6894C14.365 26.5024 14.0675 26.2049 13.7445 25.7969L4.8195 14.3984H5.4825V25.0574C5.4825 25.6694 5.3295 26.1454 5.0235 26.4854C4.7175 26.8084 4.2585 26.9699 3.6465 26.9699ZM27.7167 27.0209C26.3737 27.0209 25.2007 26.7574 24.1977 26.2304C23.2117 25.7034 22.4467 24.9469 21.9027 23.9609C21.3587 22.9749 21.0867 21.8104 21.0867 20.4674C21.0867 19.4644 21.2397 18.5634 21.5457 17.7644C21.8517 16.9654 22.2937 16.2854 22.8717 15.7244C23.4667 15.1464 24.1722 14.7129 24.9882 14.4239C25.8042 14.1179 26.7137 13.9649 27.7167 13.9649C29.0597 13.9649 30.2242 14.2284 31.2102 14.7554C32.2132 15.2824 32.9867 16.0304 33.5307 16.9994C34.0917 17.9684 34.3722 19.1244 34.3722 20.4674C34.3722 21.4874 34.2107 22.3969 33.8877 23.1959C33.5817 23.9949 33.1397 24.6834 32.5617 25.2614C31.9837 25.8394 31.2782 26.2814 30.4452 26.5874C29.6292 26.8764 28.7197 27.0209 27.7167 27.0209ZM27.7167 24.1394C28.2777 24.1394 28.7622 24.0034 29.1702 23.7314C29.5782 23.4594 29.9012 23.0599 30.1392 22.5329C30.3772 21.9889 30.4962 21.3004 30.4962 20.4674C30.4962 19.2264 30.2412 18.3169 29.7312 17.7389C29.2212 17.1439 28.5497 16.8464 27.7167 16.8464C27.1727 16.8464 26.6882 16.9739 26.2632 17.2289C25.8552 17.4839 25.5322 17.8834 25.2942 18.4274C25.0732 18.9544 24.9627 19.6344 24.9627 20.4674C24.9627 21.7084 25.2177 22.6349 25.7277 23.2469C26.2377 23.8419 26.9007 24.1394 27.7167 24.1394ZM42.3503 27.0209C41.2963 27.0209 40.4208 26.8254 39.7238 26.4344C39.0268 26.0434 38.5083 25.4569 38.1683 24.6749C37.8453 23.8759 37.6838 22.8899 37.6838 21.7169V15.9539C37.6838 15.3079 37.8453 14.8234 38.1683 14.5004C38.5083 14.1774 38.9843 14.0159 39.5963 14.0159C40.2083 14.0159 40.6843 14.1774 41.0243 14.5004C41.3643 14.8234 41.5343 15.3079 41.5343 15.9539V21.8189C41.5343 22.5669 41.6873 23.1279 41.9933 23.5019C42.2993 23.8589 42.7838 24.0374 43.4468 24.0374C44.1778 24.0374 44.7728 23.7824 45.2318 23.2724C45.7078 22.7454 45.9458 22.0569 45.9458 21.2069V15.9539C45.9458 15.3079 46.1073 14.8234 46.4303 14.5004C46.7703 14.1774 47.2463 14.0159 47.8583 14.0159C48.4873 14.0159 48.9633 14.1774 49.2863 14.5004C49.6263 14.8234 49.7963 15.3079 49.7963 15.9539V25.0064C49.7963 26.3154 49.1758 26.9699 47.9348 26.9699C47.3228 26.9699 46.8553 26.7999 46.5323 26.4599C46.2093 26.1199 46.0478 25.6354 46.0478 25.0064V23.2979L46.4303 24.2924C46.0563 25.1594 45.5208 25.8309 44.8238 26.3069C44.1268 26.7829 43.3023 27.0209 42.3503 27.0209ZM55.7848 26.9699C55.1388 26.9699 54.6458 26.7999 54.3058 26.4599C53.9658 26.1199 53.7958 25.6354 53.7958 25.0064V15.9539C53.7958 15.3249 53.9573 14.8489 54.2803 14.5259C54.6203 14.1859 55.0878 14.0159 55.6828 14.0159C56.2948 14.0159 56.7623 14.1859 57.0853 14.5259C57.4083 14.8489 57.5698 15.3249 57.5698 15.9539V17.2799H57.3148C57.5188 16.2599 57.9693 15.4694 58.6663 14.9084C59.3633 14.3474 60.2643 14.0329 61.3693 13.9649C61.7943 13.9309 62.1173 14.0414 62.3383 14.2964C62.5763 14.5344 62.7038 14.9339 62.7208 15.4949C62.7548 16.0219 62.6443 16.4384 62.3893 16.7444C62.1513 17.0504 61.7433 17.2374 61.1653 17.3054L60.5788 17.3564C59.6098 17.4414 58.8873 17.7219 58.4113 18.1979C57.9523 18.6739 57.7228 19.3624 57.7228 20.2634V25.0064C57.7228 25.6354 57.5528 26.1199 57.2128 26.4599C56.8898 26.7999 56.4138 26.9699 55.7848 26.9699ZM67.2626 26.9444C66.6336 26.9444 66.1491 26.7659 65.8091 26.4089C65.4861 26.0349 65.3246 25.5164 65.3246 24.8534V16.1324C65.3246 15.4524 65.4861 14.9339 65.8091 14.5769C66.1491 14.2029 66.6336 14.0159 67.2626 14.0159C67.8746 14.0159 68.3421 14.2029 68.6651 14.5769C69.0051 14.9339 69.1751 15.4524 69.1751 16.1324V24.8534C69.1751 25.5164 69.0136 26.0349 68.6906 26.4089C68.3676 26.7659 67.8916 26.9444 67.2626 26.9444ZM67.2626 11.9249C66.5486 11.9249 65.9961 11.7634 65.6051 11.4404C65.2311 11.1004 65.0441 10.6244 65.0441 10.0124C65.0441 9.38337 65.2311 8.90737 65.6051 8.58437C65.9961 8.24437 66.5486 8.07437 67.2626 8.07437C67.9766 8.07437 68.5206 8.24437 68.8946 8.58437C69.2686 8.90737 69.4556 9.38337 69.4556 10.0124C69.4556 10.6244 69.2686 11.1004 68.8946 11.4404C68.5206 11.7634 67.9766 11.9249 67.2626 11.9249ZM77.9619 27.0209C77.2139 27.0209 76.4404 26.9529 75.6414 26.8169C74.8594 26.6809 74.1454 26.4514 73.4994 26.1284C73.1594 25.9584 72.9129 25.7459 72.7599 25.4909C72.6239 25.2189 72.5644 24.9469 72.5814 24.6749C72.5984 24.4029 72.6834 24.1564 72.8364 23.9354C73.0064 23.7144 73.2189 23.5699 73.4739 23.5019C73.7459 23.4169 74.0434 23.4424 74.3664 23.5784C75.0634 23.8674 75.7009 24.0714 76.2789 24.1904C76.8569 24.3094 77.4264 24.3689 77.9874 24.3689C78.7184 24.3689 79.2454 24.2584 79.5684 24.0374C79.9084 23.7994 80.0784 23.4934 80.0784 23.1194C80.0784 22.7794 79.9679 22.5244 79.7469 22.3544C79.5259 22.1844 79.2029 22.0654 78.7779 21.9974L76.1004 21.5129C75.0464 21.3259 74.2304 20.9434 73.6524 20.3654C73.0914 19.7704 72.8109 19.0139 72.8109 18.0959C72.8109 17.2459 73.0489 16.5149 73.5249 15.9029C74.0009 15.2739 74.6554 14.7979 75.4884 14.4749C76.3384 14.1349 77.2989 13.9649 78.3699 13.9649C79.1349 13.9649 79.8404 14.0329 80.4864 14.1689C81.1324 14.3049 81.7529 14.5259 82.3479 14.8319C82.6539 14.9849 82.8664 15.1889 82.9854 15.4439C83.1214 15.6989 83.1639 15.9624 83.1129 16.2344C83.0789 16.5064 82.9769 16.7529 82.8069 16.9739C82.6369 17.1949 82.4159 17.3394 82.1439 17.4074C81.8889 17.4754 81.5914 17.4414 81.2514 17.3054C80.7074 17.0504 80.2059 16.8719 79.7469 16.7699C79.2879 16.6509 78.8459 16.5914 78.4209 16.5914C77.6559 16.5914 77.1034 16.7189 76.7634 16.9739C76.4234 17.2119 76.2534 17.5179 76.2534 17.8919C76.2534 18.1809 76.3469 18.4274 76.5339 18.6314C76.7379 18.8184 77.0439 18.9459 77.4519 19.0139L80.1294 19.4984C81.2344 19.6854 82.0759 20.0594 82.6539 20.6204C83.2319 21.1644 83.5209 21.9124 83.5209 22.8644C83.5209 24.1564 83.0109 25.1764 81.9909 25.9244C80.9879 26.6554 79.6449 27.0209 77.9619 27.0209ZM88.6767 26.9699C88.0477 26.9699 87.5632 26.7999 87.2232 26.4599C86.9002 26.1199 86.7387 25.6354 86.7387 25.0064V10.4969C86.7387 9.85087 86.9002 9.36637 87.2232 9.04337C87.5632 8.70337 88.0477 8.53337 88.6767 8.53337C89.2887 8.53337 89.7562 8.70337 90.0792 9.04337C90.4192 9.36637 90.5892 9.85087 90.5892 10.4969V16.5659H90.2322C90.6232 15.7329 91.2012 15.0954 91.9662 14.6534C92.7482 14.1944 93.6322 13.9649 94.6182 13.9649C95.6212 13.9649 96.4457 14.1604 97.0917 14.5514C97.7377 14.9254 98.2222 15.5034 98.5452 16.2854C98.8682 17.0504 99.0297 18.0279 99.0297 19.2179V25.0064C99.0297 25.6354 98.8597 26.1199 98.5197 26.4599C98.1967 26.7999 97.7207 26.9699 97.0917 26.9699C96.4797 26.9699 96.0037 26.7999 95.6637 26.4599C95.3407 26.1199 95.1792 25.6354 95.1792 25.0064V19.3964C95.1792 18.5294 95.0177 17.9089 94.6947 17.5349C94.3887 17.1439 93.9127 16.9484 93.2667 16.9484C92.4507 16.9484 91.7962 17.2034 91.3032 17.7134C90.8272 18.2234 90.5892 18.9034 90.5892 19.7534V25.0064C90.5892 26.3154 89.9517 26.9699 88.6767 26.9699ZM107.718 27.0209C106.97 27.0209 106.197 26.9529 105.398 26.8169C104.616 26.6809 103.902 26.4514 103.256 26.1284C102.916 25.9584 102.669 25.7459 102.516 25.4909C102.38 25.2189 102.321 24.9469 102.338 24.6749C102.355 24.4029 102.44 24.1564 102.593 23.9354C102.763 23.7144 102.975 23.5699 103.23 23.5019C103.502 23.4169 103.8 23.4424 104.123 23.5784C104.82 23.8674 105.457 24.0714 106.035 24.1904C106.613 24.3094 107.183 24.3689 107.744 24.3689C108.475 24.3689 109.002 24.2584 109.325 24.0374C109.665 23.7994 109.835 23.4934 109.835 23.1194C109.835 22.7794 109.724 22.5244 109.503 22.3544C109.282 22.1844 108.959 22.0654 108.534 21.9974L105.857 21.5129C104.803 21.3259 103.987 20.9434 103.409 20.3654C102.848 19.7704 102.567 19.0139 102.567 18.0959C102.567 17.2459 102.805 16.5149 103.281 15.9029C103.757 15.2739 104.412 14.7979 105.245 14.4749C106.095 14.1349 107.055 13.9649 108.126 13.9649C108.891 13.9649 109.597 14.0329 110.243 14.1689C110.889 14.3049 111.509 14.5259 112.104 14.8319C112.41 14.9849 112.623 15.1889 112.742 15.4439C112.878 15.6989 112.92 15.9624 112.869 16.2344C112.835 16.5064 112.733 16.7529 112.563 16.9739C112.393 17.1949 112.172 17.3394 111.9 17.4074C111.645 17.4754 111.348 17.4414 111.008 17.3054C110.464 17.0504 109.962 16.8719 109.503 16.7699C109.044 16.6509 108.602 16.5914 108.177 16.5914C107.412 16.5914 106.86 16.7189 106.52 16.9739C106.18 17.2119 106.01 17.5179 106.01 17.8919C106.01 18.1809 106.103 18.4274 106.29 18.6314C106.494 18.8184 106.8 18.9459 107.208 19.0139L109.886 19.4984C110.991 19.6854 111.832 20.0594 112.41 20.6204C112.988 21.1644 113.277 21.9124 113.277 22.8644C113.277 24.1564 112.767 25.1764 111.747 25.9244C110.744 26.6554 109.401 27.0209 107.718 27.0209Z" fill="white"/>
<path d="M145.06 8.16295L147.847 8.07486V17.9404H144.484L145.06 8.16295Z" fill="#FFA132"/>
<ellipse cx="136.475" cy="25.1634" rx="3.31877" ry="4.2281" fill="#FFA132"/>
<path d="M130.387 11.3781C130.387 13.7132 128.768 13.3159 126.935 13.3159C125.102 13.3159 123.882 12.6993 123.882 11.8625C123.882 9.52742 125.235 9.21997 127.068 9.21997C128.901 9.21997 130.387 9.04295 130.387 11.3781Z" fill="#FFA132"/>
<path d="M122.233 3.79129C122.07 3.88233 121.854 4.07743 121.743 4.227L121.547 4.50664V7.99234V11.4846L121.717 11.9203C122.331 13.4875 123.651 14.528 125.238 14.6906L125.663 14.7361L125.696 22.605L125.729 30.4738L125.872 30.708C125.957 30.838 126.147 31.0266 126.297 31.1307C126.539 31.2998 126.624 31.3193 127.068 31.3193C127.506 31.3193 127.597 31.2998 127.826 31.1437C127.963 31.0461 128.153 30.8575 128.244 30.721L128.407 30.4803L128.44 22.6115L128.473 14.7361L128.897 14.6906C130.524 14.528 131.949 13.364 132.445 11.8097C132.589 11.361 132.589 11.2895 132.589 7.93382V4.51314L132.413 4.25952C132.125 3.85632 131.825 3.68724 131.321 3.66122C130.786 3.63521 130.4 3.8108 130.106 4.227L129.91 4.50664L129.878 6.13894L129.845 7.77774H129.159H128.473L128.44 6.14544C128.407 4.53915 128.407 4.51314 128.244 4.27903C127.97 3.86933 127.636 3.68724 127.14 3.66122C126.604 3.63521 126.219 3.8108 125.925 4.227L125.729 4.50664L125.696 6.13894L125.663 7.77774H124.977H124.291L124.258 6.14544L124.226 4.51314L124.049 4.25952C123.762 3.85632 123.461 3.68724 122.958 3.66122C122.599 3.64172 122.475 3.66773 122.233 3.79129ZM129.812 10.7367C129.812 11.1334 129.492 11.5691 129.028 11.8162C128.819 11.9268 128.636 11.9398 127.068 11.9398C125.421 11.9398 125.323 11.9333 125.075 11.7967C124.631 11.5626 124.324 11.1269 124.324 10.7367V10.5416H127.068H129.812V10.7367Z" fill="white"/>
<path d="M135.777 3.79129C135.614 3.88233 135.398 4.07743 135.287 4.227L135.091 4.50664L135.058 11.7577L135.026 19.0087L134.477 19.1713C133.105 19.5615 132.079 20.3809 131.504 21.532C131.001 22.553 130.916 22.9757 130.916 24.4584C130.916 25.5444 130.936 25.8046 131.053 26.2793C131.694 28.796 133.111 30.5129 135.091 31.1697C135.477 31.2932 135.686 31.3193 136.431 31.3193C137.175 31.3193 137.385 31.2932 137.77 31.1697C139.75 30.5129 141.168 28.796 141.808 26.2793C141.926 25.8046 141.945 25.5444 141.945 24.4584C141.945 23.3659 141.926 23.1187 141.801 22.67C141.311 20.8686 140.142 19.6721 138.384 19.1713L137.835 19.0087L137.803 11.7642L137.77 4.51314L137.594 4.25952C137.306 3.85632 137.006 3.68724 136.502 3.66123C136.143 3.64172 136.019 3.66773 135.777 3.79129ZM137.718 21.8571C138.45 22.1042 138.926 22.67 139.109 23.4894C139.234 24.0552 139.162 25.4729 138.979 26.0517C138.639 27.1182 137.992 28.0156 137.293 28.3668C136.855 28.5879 136.012 28.5944 135.581 28.3733C134.836 27.9896 134.235 27.1572 133.869 26.0192C133.739 25.59 133.719 25.4014 133.719 24.4584C133.719 23.4114 133.726 23.3789 133.909 22.9757C134.235 22.2733 134.902 21.8181 135.777 21.7011C135.777 21.7011 137.313 21.7271 137.718 21.8571Z" fill="white"/>
<path d="M148.375 3.76528C147.538 4.20099 146.245 5.38457 145.448 6.43158C143.461 9.06537 142.305 12.7852 142.037 17.435C141.939 19.1388 141.985 19.3924 142.436 19.8411C142.873 20.2769 142.991 20.2964 145.474 20.2964H147.604V25.3233V30.3568L147.754 30.6299C147.832 30.786 148.028 31.0006 148.185 31.1177C148.44 31.2998 148.505 31.3193 148.969 31.3193C149.414 31.3193 149.505 31.2998 149.734 31.1437C149.871 31.0461 150.061 30.8575 150.152 30.721L150.315 30.4803V17.5V4.51314L150.139 4.25952C149.851 3.84982 149.551 3.68724 149.048 3.66122C148.721 3.64822 148.558 3.66773 148.375 3.76528ZM147.604 12.8827V17.5H146.219H144.84L144.886 16.8302C145.003 15.0418 145.441 12.8827 146.01 11.2895C146.388 10.2359 147.408 8.26548 147.571 8.26548C147.591 8.26548 147.604 10.34 147.604 12.8827Z" fill="white"/>
</svg>
